M48
INCH
T01C0.0150
T02C0.0250
T03C0.0800
T04C0.0400
%
T01
X+011087Y-021416
X+017746Y-012305
X+018578Y-012305
X+011418Y-010549
X+012913Y-010582
X+011087Y-022393
X+016639Y-012944
X+016636Y-011542
X+007756Y-006942
X+007761Y-008093
X+008600Y-013295
X+005378Y-013295
X+005318Y-012432
X+008600Y-012442
X+017397Y-016639
X+018464Y-004350
X+017402Y-017829
X+017917Y-005549
X+011580Y-021396
X+012599Y-021396
X+017585Y-021377
X+017539Y-020194
X+017506Y-007907
X+017521Y-009104
T02
X+001635Y-015245
X+002615Y-015245
X+003395Y-015245
X+004375Y-015245
T03
X+000645Y-015635
X+005365Y-015635
T04
X+001638Y-005216
X+001638Y-006397
X+002626Y-012382
X+004056Y-012442
X+009856Y-002942
X+007286Y-002932
X+020196Y-009094
X+020236Y-020196
X+020196Y-007913
X+020236Y-021377
X+020196Y-006732
X+020236Y-019015
X+020236Y-017834
X+020196Y-005551
X+020236Y-016653
X+020196Y-004370
M30
